# Blender 5.2.0 LTS
# www.blender.org
mtllib wyrm yellow.mtl
o tube
v 0.009433 -0.248037 0.056490
v -0.254448 -0.248037 -0.320370
v -0.254448 -0.233642 -0.320370
v 0.009433 -0.233642 0.056490
v 0.062043 -0.233642 0.065767
v -0.245171 -0.233642 -0.372981
v -0.245171 -0.248037 -0.372981
v 0.062043 -0.248037 0.065767
v -0.631308 -0.248037 -0.056490
v -0.631308 -0.233642 -0.056490
v -0.683918 -0.233642 -0.065767
v -0.683918 -0.248037 -0.065767
v -0.367427 -0.248037 0.320371
v -0.367427 -0.233642 0.320371
v -0.376704 -0.233642 0.372981
v -0.376704 -0.248037 0.372981
v 0.084851 -0.305615 -0.124792
v -0.435729 -0.305615 -0.395788
v -0.435729 -0.291221 -0.395788
v 0.084851 -0.291221 -0.124792
v 0.149845 -0.291221 -0.145284
v -0.456221 -0.291221 -0.460782
v -0.456221 -0.305615 -0.460782
v 0.149845 -0.305615 -0.145284
v -0.706726 -0.305615 0.124792
v -0.706726 -0.291221 0.124792
v -0.771720 -0.291221 0.145284
v -0.771720 -0.305615 0.145284
v -0.186146 -0.305615 0.395788
v -0.186146 -0.291221 0.395788
v -0.165654 -0.291221 0.460782
v -0.165654 -0.305615 0.460782
v -0.199134 -0.377587 -0.093815
v -0.404753 -0.377587 -0.111804
v -0.404753 -0.363193 -0.111804
v -0.199134 -0.363193 -0.093815
v -0.180773 -0.363193 -0.109221
v -0.420158 -0.363193 -0.130164
v -0.420158 -0.377587 -0.130164
v -0.180773 -0.377587 -0.109221
v -0.422741 -0.377587 0.093815
v -0.422741 -0.363193 0.093815
v -0.441102 -0.363193 0.109221
v -0.441102 -0.377587 0.109221
v -0.217122 -0.377587 0.111804
v -0.217122 -0.363193 0.111804
v -0.201717 -0.363193 0.130164
v -0.201717 -0.377587 0.130164
vn -0.8192 -0.0000 0.5736
vn 0.8192 -0.0000 -0.5736
vn -0.0000 -1.0000 -0.0000
vn -0.0000 1.0000 -0.0000
vn 0.5736 -0.0000 0.8192
vn -0.5736 -0.0000 -0.8192
vn -0.4617 -0.0000 0.8870
vn 0.4617 -0.0000 -0.8870
vn 0.8870 -0.0000 0.4617
vn -0.8870 -0.0000 -0.4617
vn -0.0872 -0.0000 0.9962
vn 0.0872 -0.0000 -0.9962
vn 0.9962 -0.0000 0.0872
vn -0.9962 -0.0000 -0.0872
vt 0.046875 0.984375
vt 0.046875 0.953125
vt 0.015625 0.953125
vt 0.015625 0.984375
vt 0.109375 0.984375
vt 0.109375 0.953125
vt 0.078125 0.953125
vt 0.078125 0.984375
vt 0.171875 0.984375
vt 0.171875 0.953125
vt 0.140625 0.953125
vt 0.140625 0.984375
vt 0.234375 0.984375
vt 0.234375 0.953125
vt 0.203125 0.953125
vt 0.203125 0.984375
vt 0.296875 0.984375
vt 0.296875 0.953125
vt 0.265625 0.953125
vt 0.265625 0.984375
vt 0.359375 0.984375
vt 0.359375 0.953125
vt 0.328125 0.953125
vt 0.328125 0.984375
vt 0.421875 0.984375
vt 0.421875 0.953125
vt 0.390625 0.953125
vt 0.390625 0.984375
vt 0.484375 0.984375
vt 0.484375 0.953125
vt 0.453125 0.953125
vt 0.453125 0.984375
vt 0.546875 0.984375
vt 0.546875 0.953125
vt 0.515625 0.953125
vt 0.515625 0.984375
vt 0.609375 0.984375
vt 0.609375 0.953125
vt 0.578125 0.953125
vt 0.578125 0.984375
vt 0.671875 0.984375
vt 0.671875 0.953125
vt 0.640625 0.953125
vt 0.640625 0.984375
vt 0.734375 0.984375
vt 0.734375 0.953125
vt 0.703125 0.953125
vt 0.703125 0.984375
vt 0.796875 0.984375
vt 0.796875 0.953125
vt 0.765625 0.953125
vt 0.765625 0.984375
vt 0.859375 0.984375
vt 0.859375 0.953125
vt 0.828125 0.953125
vt 0.828125 0.984375
vt 0.921875 0.984375
vt 0.921875 0.953125
vt 0.890625 0.953125
vt 0.890625 0.984375
vt 0.984375 0.984375
vt 0.984375 0.953125
vt 0.953125 0.953125
vt 0.953125 0.984375
vt 0.046875 0.921875
vt 0.046875 0.890625
vt 0.015625 0.890625
vt 0.015625 0.921875
vt 0.109375 0.921875
vt 0.109375 0.890625
vt 0.078125 0.890625
vt 0.078125 0.921875
vt 0.171875 0.921875
vt 0.171875 0.890625
vt 0.140625 0.890625
vt 0.140625 0.921875
vt 0.234375 0.921875
vt 0.234375 0.890625
vt 0.203125 0.890625
vt 0.203125 0.921875
vt 0.296875 0.921875
vt 0.296875 0.890625
vt 0.265625 0.890625
vt 0.265625 0.921875
vt 0.359375 0.921875
vt 0.359375 0.890625
vt 0.328125 0.890625
vt 0.328125 0.921875
vt 0.421875 0.921875
vt 0.421875 0.890625
vt 0.390625 0.890625
vt 0.390625 0.921875
vt 0.484375 0.921875
vt 0.484375 0.890625
vt 0.453125 0.890625
vt 0.453125 0.921875
vt 0.546875 0.921875
vt 0.546875 0.890625
vt 0.515625 0.890625
vt 0.515625 0.921875
vt 0.609375 0.921875
vt 0.609375 0.890625
vt 0.578125 0.890625
vt 0.578125 0.921875
vt 0.671875 0.921875
vt 0.671875 0.890625
vt 0.640625 0.890625
vt 0.640625 0.921875
vt 0.734375 0.921875
vt 0.734375 0.890625
vt 0.703125 0.890625
vt 0.703125 0.921875
vt 0.796875 0.921875
vt 0.796875 0.890625
vt 0.765625 0.890625
vt 0.765625 0.921875
vt 0.859375 0.921875
vt 0.859375 0.890625
vt 0.828125 0.890625
vt 0.828125 0.921875
vt 0.921875 0.921875
vt 0.921875 0.890625
vt 0.890625 0.890625
vt 0.890625 0.921875
vt 0.984375 0.921875
vt 0.984375 0.890625
vt 0.953125 0.890625
vt 0.953125 0.921875
vt 0.046875 0.859375
vt 0.046875 0.828125
vt 0.015625 0.828125
vt 0.015625 0.859375
vt 0.109375 0.859375
vt 0.109375 0.828125
vt 0.078125 0.828125
vt 0.078125 0.859375
vt 0.171875 0.859375
vt 0.171875 0.828125
vt 0.140625 0.828125
vt 0.140625 0.859375
vt 0.234375 0.859375
vt 0.234375 0.828125
vt 0.203125 0.828125
vt 0.203125 0.859375
vt 0.296875 0.859375
vt 0.296875 0.828125
vt 0.265625 0.828125
vt 0.265625 0.859375
vt 0.359375 0.859375
vt 0.359375 0.828125
vt 0.328125 0.828125
vt 0.328125 0.859375
vt 0.421875 0.859375
vt 0.421875 0.828125
vt 0.390625 0.828125
vt 0.390625 0.859375
vt 0.484375 0.859375
vt 0.484375 0.828125
vt 0.453125 0.828125
vt 0.453125 0.859375
vt 0.546875 0.859375
vt 0.546875 0.828125
vt 0.515625 0.828125
vt 0.515625 0.859375
vt 0.609375 0.859375
vt 0.609375 0.828125
vt 0.578125 0.828125
vt 0.578125 0.859375
vt 0.671875 0.859375
vt 0.671875 0.828125
vt 0.640625 0.828125
vt 0.640625 0.859375
vt 0.734375 0.859375
vt 0.734375 0.828125
vt 0.703125 0.828125
vt 0.703125 0.859375
vt 0.796875 0.859375
vt 0.796875 0.828125
vt 0.765625 0.828125
vt 0.765625 0.859375
vt 0.859375 0.859375
vt 0.859375 0.828125
vt 0.828125 0.828125
vt 0.828125 0.859375
vt 0.921875 0.859375
vt 0.921875 0.828125
vt 0.890625 0.828125
vt 0.890625 0.859375
vt 0.984375 0.859375
vt 0.984375 0.828125
vt 0.953125 0.828125
vt 0.953125 0.859375
s 1
usemtl none
f 1/1/1 4/2/1 3/3/1 2/4/1
f 5/5/2 8/6/2 7/7/2 6/8/2
f 8/9/3 1/10/3 2/11/3 7/12/3
f 4/13/4 5/14/4 6/15/4 3/16/4
f 2/17/5 3/18/5 10/19/5 9/20/5
f 6/21/6 7/22/6 12/23/6 11/24/6
f 7/25/3 2/26/3 9/27/3 12/28/3
f 3/29/4 6/30/4 11/31/4 10/32/4
f 9/33/2 10/34/2 14/35/2 13/36/2
f 11/37/1 12/38/1 16/39/1 15/40/1
f 12/41/3 9/42/3 13/43/3 16/44/3
f 10/45/4 11/46/4 15/47/4 14/48/4
f 13/49/6 14/50/6 4/51/6 1/52/6
f 15/53/5 16/54/5 8/55/5 5/56/5
f 16/57/3 13/58/3 1/59/3 8/60/3
f 14/61/4 15/62/4 5/63/4 4/64/4
f 17/65/7 20/66/7 19/67/7 18/68/7
f 21/69/8 24/70/8 23/71/8 22/72/8
f 24/73/3 17/74/3 18/75/3 23/76/3
f 20/77/4 21/78/4 22/79/4 19/80/4
f 18/81/9 19/82/9 26/83/9 25/84/9
f 22/85/10 23/86/10 28/87/10 27/88/10
f 23/89/3 18/90/3 25/91/3 28/92/3
f 19/93/4 22/94/4 27/95/4 26/96/4
f 25/97/8 26/98/8 30/99/8 29/100/8
f 27/101/7 28/102/7 32/103/7 31/104/7
f 28/105/3 25/106/3 29/107/3 32/108/3
f 26/109/4 27/110/4 31/111/4 30/112/4
f 29/113/10 30/114/10 20/115/10 17/116/10
f 31/117/9 32/118/9 24/119/9 21/120/9
f 32/121/3 29/122/3 17/123/3 24/124/3
f 30/125/4 31/126/4 21/127/4 20/128/4
f 33/129/11 36/130/11 35/131/11 34/132/11
f 37/133/12 40/134/12 39/135/12 38/136/12
f 40/137/3 33/138/3 34/139/3 39/140/3
f 36/141/4 37/142/4 38/143/4 35/144/4
f 34/145/13 35/146/13 42/147/13 41/148/13
f 38/149/14 39/150/14 44/151/14 43/152/14
f 39/153/3 34/154/3 41/155/3 44/156/3
f 35/157/4 38/158/4 43/159/4 42/160/4
f 41/161/12 42/162/12 46/163/12 45/164/12
f 43/165/11 44/166/11 48/167/11 47/168/11
f 44/169/3 41/170/3 45/171/3 48/172/3
f 42/173/4 43/174/4 47/175/4 46/176/4
f 45/177/14 46/178/14 36/179/14 33/180/14
f 47/181/13 48/182/13 40/183/13 37/184/13
f 48/185/3 45/186/3 33/187/3 40/188/3
f 46/189/4 47/190/4 37/191/4 36/192/4
