# Made in Blockbench 5.1.6
mtllib wyrm red.mtl

o cone
v -0.6682085 0.20900070304035223 0.30883351075268817
v -0.4724165 0.20900070304035223 0.4218750107526882
v -0.359375 0.20900070304035223 1.0752688169582246e-8
v -0.359375 -0.09339681182795703 1.0752688169582246e-8
v -0.78125 0.20900070304035223 0.11304151075268816
v -0.78125 0.20900070304035223 -0.11304148924731182
v -0.6682085 0.20900070304035223 -0.3088334892473118
v -0.4724165 0.20900070304035223 -0.4218749892473118
v -0.2463335 0.20900070304035223 -0.4218749892473118
v -0.05054150000000002 0.20900070304035223 -0.3088334892473118
v 0.0625 0.20900070304035223 -0.11304148924731182
v 0.0625 0.20900070304035223 0.11304151075268816
v -0.05054150000000002 0.20900070304035223 0.30883351075268817
v -0.2463335 0.20900070304035223 0.4218750107526882
v -0.06120049999999999 0.15907527653228087 0.31196251075268816
v -0.2382935 0.15907527653228087 0.4142085107526882
v -0.2463335 0.16364053821452385 0.4218750107526882
v -0.05054150000000002 0.16364053821452385 0.30883351075268817
v -0.04010150000000001 0.15451001485003785 0.31927351075268817
v -0.2425115 0.15451001485003785 0.4361370107526882
v -0.3405395 0.15665179564867848 0.03262351075268817
v -0.359375 0.16364053821452385 1.0752688169582246e-8
v -0.359375 0.14966305308283312 1.0752688169582246e-8
v -0.235979 0.16606401909812618 0.4241310107526882
v -0.05376500000000001 0.16606401909812618 0.3189285107526882
v -0.05376500000000001 0.2065772221567499 0.3189285107526882
v -0.05054150000000002 0.20900070304035223 0.30883351075268817
v -0.04010150000000001 0.21813122640483817 0.31927351075268817
v -0.235979 0.2065772221567499 0.4241310107526882
v -0.2463335 0.20900070304035223 0.4218750107526882
v -0.2425115 0.21813122640483817 0.4361370107526882
v -0.2382935 0.2135659647225952 0.4142085107526882
v -0.06120049999999999 0.2135659647225952 0.31196251075268816
v -0.3405395 0.2159894456061976 0.03262351075268817
v -0.359375 0.20900070304035223 1.0752688169582246e-8
v -0.359375 0.22297818817204296 1.0752688169582246e-8
v 0.054833500000000035 0.15907527653228087 0.12108151075268818
v -0.047412500000000024 0.15907527653228087 0.2981745107526882
v 0.0625 0.16364053821452385 0.11304151075268816
v 0.076762 0.15451001485003785 0.11686351075268818
v -0.3267515 0.15665179564867848 0.018835510752688172
v -0.040446499999999996 0.16606401909812618 0.3056100107526882
v 0.06475600000000004 0.16606401909812618 0.12339601075268818
v 0.06475600000000004 0.2065772221567499 0.12339601075268818
v 0.0625 0.20900070304035223 0.11304151075268816
v 0.076762 0.21813122640483817 0.11686351075268818
v -0.040446499999999996 0.2065772221567499 0.3056100107526882
v -0.047412500000000024 0.2135659647225952 0.2981745107526882
v 0.054833500000000035 0.2135659647225952 0.12108151075268818
v -0.3267515 0.2159894456061976 0.018835510752688172
v 0.05988099999999996 0.15907527653228087 -0.10224598924731183
v 0.05988099999999996 0.15907527653228087 0.10224601075268817
v 0.0625 0.16364053821452385 -0.11304148924731182
v 0.076762 0.15451001485003785 -0.11686348924731184
v -0.321704 0.15665179564867848 1.0752688169582246e-8
v 0.069631 0.16606401909812618 0.10520251075268817
v 0.069631 0.16606401909812618 -0.10520248924731183
v 0.069631 0.2065772221567499 -0.10520248924731183
v 0.0625 0.20900070304035223 -0.11304148924731182
v 0.076762 0.21813122640483817 -0.11686348924731184
v 0.069631 0.2065772221567499 0.10520251075268817
v 0.05988099999999996 0.2135659647225952 0.10224601075268817
v 0.05988099999999996 0.2135659647225952 -0.10224598924731183
v -0.321704 0.2159894456061976 1.0752688169582246e-8
v -0.047412500000000024 0.15907527653228087 -0.2981744892473118
v 0.054833500000000035 0.15907527653228087 -0.12108148924731184
v -0.05054150000000002 0.16364053821452385 -0.3088334892473118
v -0.04010150000000001 0.15451001485003785 -0.3192734892473118
v -0.3267515 0.15665179564867848 -0.01883548924731183
v 0.06475600000000004 0.16606401909812618 -0.12339598924731184
v -0.040446499999999996 0.16606401909812618 -0.3056099892473118
v -0.040446499999999996 0.2065772221567499 -0.3056099892473118
v -0.05054150000000002 0.20900070304035223 -0.3088334892473118
v -0.04010150000000001 0.21813122640483817 -0.3192734892473118
v 0.06475600000000004 0.2065772221567499 -0.12339598924731184
v 0.054833500000000035 0.2135659647225952 -0.12108148924731184
v -0.047412500000000024 0.2135659647225952 -0.2981744892473118
v -0.3267515 0.2159894456061976 -0.01883548924731183
v -0.2382935 0.15907527653228087 -0.41420848924731185
v -0.06120049999999999 0.15907527653228087 -0.31196398924731183
v -0.2463335 0.16364053821452385 -0.4218749892473118
v -0.2425115 0.15451001485003785 -0.4361369892473118
v -0.3405395 0.15665179564867848 -0.03262348924731183
v -0.05376500000000001 0.16606401909812618 -0.3189284892473118
v -0.235979 0.16606401909812618 -0.42413098924731185
v -0.235979 0.2065772221567499 -0.42413098924731185
v -0.2463335 0.20900070304035223 -0.4218749892473118
v -0.2425115 0.21813122640483817 -0.4361369892473118
v -0.05376500000000001 0.2065772221567499 -0.3189284892473118
v -0.06120049999999999 0.2135659647225952 -0.31196398924731183
v -0.2382935 0.2135659647225952 -0.41420848924731185
v -0.3405395 0.2159894456061976 -0.03262348924731183
v -0.461621 0.15907527653228087 -0.4192559892473118
v -0.257129 0.15907527653228087 -0.4192559892473118
v -0.4724165 0.16364053821452385 -0.4218749892473118
v -0.4762385 0.15451001485003785 -0.4361369892473118
v -0.359375 0.15665179564867848 -0.03767098924731183
v -0.2541725 0.16606401909812618 -0.4290059892473118
v -0.4645775 0.16606401909812618 -0.4290059892473118
v -0.4645775 0.2065772221567499 -0.4290059892473118
v -0.4724165 0.20900070304035223 -0.4218749892473118
v -0.4762385 0.21813122640483817 -0.4361369892473118
v -0.2541725 0.2065772221567499 -0.4290059892473118
v -0.257129 0.2135659647225952 -0.4192559892473118
v -0.461621 0.2135659647225952 -0.4192559892473118
v -0.359375 0.2159894456061976 -0.03767098924731183
v -0.6575495 0.15907527653228087 -0.31196398924731183
v -0.4804565 0.15907527653228087 -0.41420848924731185
v -0.6682085 0.16364053821452385 -0.3088334892473118
v -0.6786485 0.15451001485003785 -0.3192734892473118
v -0.3782105 0.15665179564867848 -0.03262348924731183
v -0.482771 0.16606401909812618 -0.42413098924731185
v -0.6649849999999999 0.16606401909812618 -0.3189284892473118
v -0.6649849999999999 0.2065772221567499 -0.3189284892473118
v -0.6682085 0.20900070304035223 -0.3088334892473118
v -0.6786485 0.21813122640483817 -0.3192734892473118
v -0.482771 0.2065772221567499 -0.42413098924731185
v -0.4804565 0.2135659647225952 -0.41420848924731185
v -0.6575495 0.2135659647225952 -0.31196398924731183
v -0.3782105 0.2159894456061976 -0.03262348924731183
v -0.7735835 0.15907527653228087 -0.12108148924731184
v -0.6713374999999999 0.15907527653228087 -0.2981744892473118
v -0.78125 0.16364053821452385 -0.11304148924731182
v -0.795512 0.15451001485003785 -0.11686348924731184
v -0.3919985 0.15665179564867848 -0.01883548924731183
v -0.6783035 0.16606401909812618 -0.3056099892473118
v -0.783506 0.16606401909812618 -0.12339598924731184
v -0.783506 0.2065772221567499 -0.12339598924731184
v -0.78125 0.20900070304035223 -0.11304148924731182
v -0.795512 0.21813122640483817 -0.11686348924731184
v -0.6783035 0.2065772221567499 -0.3056099892473118
v -0.6713374999999999 0.2135659647225952 -0.2981744892473118
v -0.7735835 0.2135659647225952 -0.12108148924731184
v -0.3919985 0.2159894456061976 -0.01883548924731183
v -0.778631 0.15907527653228087 0.10224601075268817
v -0.778631 0.15907527653228087 -0.10224598924731183
v -0.78125 0.16364053821452385 0.11304151075268816
v -0.795512 0.15451001485003785 0.11686351075268818
v -0.397046 0.15665179564867848 1.0752688169582246e-8
v -0.788381 0.16606401909812618 -0.10520248924731183
v -0.788381 0.16606401909812618 0.10520251075268817
v -0.788381 0.2065772221567499 0.10520251075268817
v -0.78125 0.20900070304035223 0.11304151075268816
v -0.795512 0.21813122640483817 0.11686351075268818
v -0.788381 0.2065772221567499 -0.10520248924731183
v -0.778631 0.2135659647225952 -0.10224598924731183
v -0.778631 0.2135659647225952 0.10224601075268817
v -0.397046 0.2159894456061976 1.0752688169582246e-8
v -0.6713374999999999 0.15907527653228087 0.2981745107526882
v -0.7735835 0.15907527653228087 0.12108151075268818
v -0.6682085 0.16364053821452385 0.30883351075268817
v -0.6786485 0.15451001485003785 0.31927351075268817
v -0.3919985 0.15665179564867848 0.018835510752688172
v -0.783506 0.16606401909812618 0.12339601075268818
v -0.6783035 0.16606401909812618 0.3056100107526882
v -0.6783035 0.2065772221567499 0.3056100107526882
v -0.6682085 0.20900070304035223 0.30883351075268817
v -0.6786485 0.21813122640483817 0.31927351075268817
v -0.783506 0.2065772221567499 0.12339601075268818
v -0.7735835 0.2135659647225952 0.12108151075268818
v -0.6713374999999999 0.2135659647225952 0.2981745107526882
v -0.3919985 0.2159894456061976 0.018835510752688172
v -0.4804565 0.15907527653228087 0.4142085107526882
v -0.6575495 0.15907527653228087 0.31196251075268816
v -0.4724165 0.16364053821452385 0.4218750107526882
v -0.4762385 0.15451001485003785 0.4361370107526882
v -0.3782105 0.15665179564867848 0.03262351075268817
v -0.6649849999999999 0.16606401909812618 0.3189285107526882
v -0.482771 0.16606401909812618 0.4241310107526882
v -0.482771 0.2065772221567499 0.4241310107526882
v -0.4724165 0.20900070304035223 0.4218750107526882
v -0.4762385 0.21813122640483817 0.4361370107526882
v -0.6649849999999999 0.2065772221567499 0.3189285107526882
v -0.6575495 0.2135659647225952 0.31196251075268816
v -0.4804565 0.2135659647225952 0.4142085107526882
v -0.3782105 0.2159894456061976 0.03262351075268817
v -0.257129 0.15907527653228087 0.41925601075268815
v -0.461621 0.15907527653228087 0.41925601075268815
v -0.359375 0.15665179564867848 0.037671010752688174
v -0.4645775 0.16606401909812618 0.4290060107526882
v -0.2541725 0.16606401909812618 0.4290060107526882
v -0.2541725 0.2065772221567499 0.4290060107526882
v -0.4645775 0.2065772221567499 0.4290060107526882
v -0.461621 0.2135659647225952 0.41925601075268815
v -0.257129 0.2135659647225952 0.41925601075268815
v -0.359375 0.2159894456061976 0.037671010752688174
vt 0.046875 0.984375
vt 0.015625 0.984375
vt 0.015625 0.953125
vt 0.109375 0.984375
vt 0.078125 0.984375
vt 0.078125 0.953125
vt 0.171875 0.984375
vt 0.140625 0.984375
vt 0.140625 0.953125
vt 0.234375 0.984375
vt 0.203125 0.984375
vt 0.203125 0.953125
vt 0.296875 0.984375
vt 0.265625 0.984375
vt 0.265625 0.953125
vt 0.359375 0.984375
vt 0.328125 0.984375
vt 0.328125 0.953125
vt 0.421875 0.984375
vt 0.390625 0.984375
vt 0.390625 0.953125
vt 0.484375 0.984375
vt 0.453125 0.984375
vt 0.453125 0.953125
vt 0.546875 0.984375
vt 0.515625 0.984375
vt 0.515625 0.953125
vt 0.609375 0.984375
vt 0.578125 0.984375
vt 0.578125 0.953125
vt 0.671875 0.984375
vt 0.640625 0.984375
vt 0.640625 0.953125
vt 0.734375 0.984375
vt 0.703125 0.984375
vt 0.703125 0.953125
vt 0.796875 0.984375
vt 0.765625 0.984375
vt 0.765625 0.953125
vt 0.859375 0.984375
vt 0.828125 0.984375
vt 0.828125 0.953125
vt 0.921875 0.984375
vt 0.890625 0.984375
vt 0.890625 0.953125
vt 0.984375 0.984375
vt 0.953125 0.984375
vt 0.953125 0.953125
vt 0.046875 0.921875
vt 0.015625 0.921875
vt 0.015625 0.890625
vt 0.109375 0.921875
vt 0.078125 0.921875
vt 0.078125 0.890625
vt 0.171875 0.921875
vt 0.140625 0.921875
vt 0.140625 0.890625
vt 0.234375 0.921875
vt 0.203125 0.921875
vt 0.203125 0.890625
vt 0.296875 0.921875
vt 0.265625 0.921875
vt 0.265625 0.890625
vt 0.359375 0.921875
vt 0.328125 0.921875
vt 0.328125 0.890625
vt 0.421875 0.921875
vt 0.390625 0.921875
vt 0.390625 0.890625
vt 0.484375 0.921875
vt 0.453125 0.921875
vt 0.453125 0.890625
vt 0.546875 0.921875
vt 0.515625 0.921875
vt 0.515625 0.921875
vt 0.546875 0.921875
vt 0.515625 0.921875
vt 0.546875 0.921875
vt 0.546875 0.921875
vt 0.515625 0.921875
vt 0.515625 0.921875
vt 0.515625 0.890625
vt 0.515625 0.890625
vt 0.515625 0.921875
vt 0.515625 0.890625
vt 0.515625 0.921875
vt 0.515625 0.921875
vt 0.515625 0.890625
vt 0.515625 0.890625
vt 0.546875 0.921875
vt 0.546875 0.921875
vt 0.515625 0.890625
vt 0.546875 0.921875
vt 0.515625 0.890625
vt 0.515625 0.890625
vt 0.546875 0.921875
vt 0.609375 0.921875
vt 0.578125 0.921875
vt 0.578125 0.921875
vt 0.609375 0.921875
vt 0.578125 0.921875
vt 0.609375 0.921875
vt 0.609375 0.921875
vt 0.578125 0.921875
vt 0.578125 0.921875
vt 0.578125 0.890625
vt 0.578125 0.890625
vt 0.578125 0.921875
vt 0.578125 0.890625
vt 0.578125 0.921875
vt 0.578125 0.921875
vt 0.578125 0.890625
vt 0.578125 0.890625
vt 0.609375 0.890625
vt 0.609375 0.890625
vt 0.578125 0.890625
vt 0.609375 0.890625
vt 0.578125 0.890625
vt 0.578125 0.890625
vt 0.609375 0.890625
vt 0.609375 0.890625
vt 0.609375 0.921875
vt 0.609375 0.921875
vt 0.609375 0.890625
vt 0.609375 0.921875
vt 0.609375 0.890625
vt 0.609375 0.890625
vt 0.609375 0.921875
vt 0.671875 0.921875
vt 0.640625 0.921875
vt 0.640625 0.921875
vt 0.671875 0.921875
vt 0.640625 0.921875
vt 0.671875 0.921875
vt 0.671875 0.921875
vt 0.640625 0.921875
vt 0.640625 0.921875
vt 0.640625 0.890625
vt 0.640625 0.890625
vt 0.640625 0.921875
vt 0.640625 0.890625
vt 0.640625 0.921875
vt 0.640625 0.921875
vt 0.640625 0.890625
vt 0.640625 0.890625
vt 0.671875 0.921875
vt 0.671875 0.921875
vt 0.640625 0.890625
vt 0.671875 0.921875
vt 0.640625 0.890625
vt 0.640625 0.890625
vt 0.671875 0.921875
vt 0.734375 0.921875
vt 0.703125 0.921875
vt 0.703125 0.921875
vt 0.734375 0.921875
vt 0.703125 0.921875
vt 0.734375 0.921875
vt 0.734375 0.921875
vt 0.703125 0.921875
vt 0.703125 0.921875
vt 0.703125 0.890625
vt 0.703125 0.890625
vt 0.703125 0.921875
vt 0.703125 0.890625
vt 0.703125 0.921875
vt 0.703125 0.921875
vt 0.703125 0.890625
vt 0.703125 0.890625
vt 0.734375 0.921875
vt 0.734375 0.921875
vt 0.703125 0.890625
vt 0.734375 0.921875
vt 0.703125 0.890625
vt 0.703125 0.890625
vt 0.734375 0.921875
vt 0.796875 0.921875
vt 0.765625 0.921875
vt 0.765625 0.921875
vt 0.796875 0.921875
vt 0.765625 0.921875
vt 0.796875 0.921875
vt 0.796875 0.921875
vt 0.765625 0.921875
vt 0.765625 0.921875
vt 0.765625 0.890625
vt 0.765625 0.890625
vt 0.765625 0.921875
vt 0.765625 0.890625
vt 0.765625 0.921875
vt 0.765625 0.921875
vt 0.765625 0.890625
vt 0.765625 0.890625
vt 0.796875 0.890625
vt 0.796875 0.890625
vt 0.765625 0.890625
vt 0.796875 0.890625
vt 0.765625 0.890625
vt 0.765625 0.890625
vt 0.796875 0.890625
vt 0.796875 0.890625
vt 0.796875 0.921875
vt 0.796875 0.921875
vt 0.796875 0.890625
vt 0.796875 0.921875
vt 0.796875 0.890625
vt 0.796875 0.890625
vt 0.796875 0.921875
vt 0.859375 0.921875
vt 0.828125 0.921875
vt 0.828125 0.921875
vt 0.859375 0.921875
vt 0.828125 0.921875
vt 0.859375 0.921875
vt 0.859375 0.921875
vt 0.828125 0.921875
vt 0.828125 0.921875
vt 0.828125 0.890625
vt 0.828125 0.890625
vt 0.828125 0.921875
vt 0.828125 0.890625
vt 0.828125 0.921875
vt 0.828125 0.921875
vt 0.828125 0.890625
vt 0.828125 0.890625
vt 0.859375 0.921875
vt 0.859375 0.921875
vt 0.828125 0.890625
vt 0.859375 0.921875
vt 0.828125 0.890625
vt 0.828125 0.890625
vt 0.859375 0.921875
vt 0.921875 0.921875
vt 0.890625 0.921875
vt 0.890625 0.921875
vt 0.921875 0.921875
vt 0.890625 0.921875
vt 0.921875 0.921875
vt 0.921875 0.921875
vt 0.890625 0.921875
vt 0.890625 0.921875
vt 0.890625 0.890625
vt 0.890625 0.890625
vt 0.890625 0.921875
vt 0.890625 0.890625
vt 0.890625 0.921875
vt 0.890625 0.921875
vt 0.890625 0.890625
vt 0.890625 0.890625
vt 0.921875 0.921875
vt 0.921875 0.921875
vt 0.890625 0.890625
vt 0.921875 0.921875
vt 0.890625 0.890625
vt 0.890625 0.890625
vt 0.921875 0.921875
vt 0.984375 0.921875
vt 0.953125 0.921875
vt 0.953125 0.921875
vt 0.984375 0.921875
vt 0.953125 0.921875
vt 0.984375 0.921875
vt 0.984375 0.921875
vt 0.953125 0.921875
vt 0.953125 0.921875
vt 0.953125 0.890625
vt 0.953125 0.890625
vt 0.953125 0.921875
vt 0.953125 0.890625
vt 0.953125 0.921875
vt 0.953125 0.921875
vt 0.953125 0.890625
vt 0.953125 0.890625
vt 0.984375 0.890625
vt 0.984375 0.890625
vt 0.953125 0.890625
vt 0.984375 0.890625
vt 0.953125 0.890625
vt 0.953125 0.890625
vt 0.984375 0.890625
vt 0.984375 0.890625
vt 0.984375 0.921875
vt 0.984375 0.921875
vt 0.984375 0.890625
vt 0.984375 0.921875
vt 0.984375 0.890625
vt 0.984375 0.890625
vt 0.984375 0.921875
vt 0.046875 0.859375
vt 0.015625 0.859375
vt 0.015625 0.859375
vt 0.046875 0.859375
vt 0.015625 0.859375
vt 0.046875 0.859375
vt 0.046875 0.859375
vt 0.015625 0.859375
vt 0.015625 0.859375
vt 0.015625 0.828125
vt 0.015625 0.828125
vt 0.015625 0.859375
vt 0.015625 0.828125
vt 0.015625 0.859375
vt 0.015625 0.859375
vt 0.015625 0.828125
vt 0.015625 0.828125
vt 0.046875 0.859375
vt 0.046875 0.859375
vt 0.015625 0.828125
vt 0.046875 0.859375
vt 0.015625 0.828125
vt 0.015625 0.828125
vt 0.046875 0.859375
vt 0.109375 0.859375
vt 0.078125 0.859375
vt 0.078125 0.859375
vt 0.109375 0.859375
vt 0.078125 0.859375
vt 0.109375 0.859375
vt 0.109375 0.859375
vt 0.078125 0.859375
vt 0.078125 0.859375
vt 0.078125 0.828125
vt 0.078125 0.828125
vt 0.078125 0.859375
vt 0.078125 0.828125
vt 0.078125 0.859375
vt 0.078125 0.859375
vt 0.078125 0.828125
vt 0.078125 0.828125
vt 0.109375 0.859375
vt 0.109375 0.859375
vt 0.078125 0.828125
vt 0.109375 0.859375
vt 0.078125 0.828125
vt 0.078125 0.828125
vt 0.109375 0.859375
vt 0.171875 0.859375
vt 0.140625 0.859375
vt 0.140625 0.859375
vt 0.171875 0.859375
vt 0.140625 0.859375
vt 0.171875 0.859375
vt 0.171875 0.859375
vt 0.140625 0.859375
vt 0.140625 0.859375
vt 0.140625 0.828125
vt 0.140625 0.828125
vt 0.140625 0.859375
vt 0.140625 0.828125
vt 0.140625 0.859375
vt 0.140625 0.859375
vt 0.140625 0.828125
vt 0.140625 0.828125
vt 0.171875 0.828125
vt 0.171875 0.828125
vt 0.140625 0.828125
vt 0.171875 0.828125
vt 0.140625 0.828125
vt 0.140625 0.828125
vt 0.171875 0.828125
vt 0.171875 0.828125
vt 0.171875 0.859375
vt 0.171875 0.859375
vt 0.171875 0.828125
vt 0.171875 0.859375
vt 0.171875 0.828125
vt 0.171875 0.828125
vt 0.171875 0.859375
vt 0.234375 0.859375
vt 0.203125 0.859375
vt 0.203125 0.859375
vt 0.234375 0.859375
vt 0.203125 0.859375
vt 0.234375 0.859375
vt 0.234375 0.859375
vt 0.203125 0.859375
vt 0.203125 0.859375
vt 0.203125 0.828125
vt 0.203125 0.828125
vt 0.203125 0.859375
vt 0.203125 0.828125
vt 0.203125 0.859375
vt 0.203125 0.859375
vt 0.203125 0.828125
vt 0.203125 0.828125
vt 0.234375 0.859375
vt 0.234375 0.859375
vt 0.203125 0.828125
vt 0.234375 0.859375
vt 0.203125 0.828125
vt 0.203125 0.828125
vt 0.234375 0.859375
vt 0.296875 0.859375
vt 0.265625 0.859375
vt 0.265625 0.859375
vt 0.296875 0.859375
vt 0.265625 0.859375
vt 0.296875 0.859375
vt 0.296875 0.859375
vt 0.265625 0.859375
vt 0.265625 0.859375
vt 0.265625 0.828125
vt 0.265625 0.828125
vt 0.265625 0.859375
vt 0.265625 0.828125
vt 0.265625 0.859375
vt 0.265625 0.859375
vt 0.265625 0.828125
vt 0.265625 0.828125
vt 0.296875 0.859375
vt 0.296875 0.859375
vt 0.265625 0.828125
vt 0.296875 0.859375
vt 0.265625 0.828125
vt 0.265625 0.828125
vt 0.296875 0.859375
vt 0.359375 0.859375
vt 0.328125 0.859375
vt 0.328125 0.859375
vt 0.359375 0.859375
vt 0.328125 0.859375
vt 0.359375 0.859375
vt 0.359375 0.859375
vt 0.328125 0.859375
vt 0.328125 0.859375
vt 0.328125 0.828125
vt 0.328125 0.828125
vt 0.328125 0.859375
vt 0.328125 0.828125
vt 0.328125 0.859375
vt 0.328125 0.859375
vt 0.328125 0.828125
vt 0.328125 0.828125
vt 0.359375 0.828125
vt 0.359375 0.828125
vt 0.328125 0.828125
vt 0.359375 0.828125
vt 0.328125 0.828125
vt 0.328125 0.828125
vt 0.359375 0.828125
vt 0.359375 0.828125
vt 0.359375 0.859375
vt 0.359375 0.859375
vt 0.359375 0.828125
vt 0.359375 0.859375
vt 0.359375 0.828125
vt 0.359375 0.828125
vt 0.359375 0.859375
vt 0.421875 0.859375
vt 0.390625 0.859375
vt 0.390625 0.859375
vt 0.421875 0.859375
vt 0.390625 0.859375
vt 0.421875 0.859375
vt 0.421875 0.859375
vt 0.390625 0.859375
vt 0.390625 0.859375
vt 0.390625 0.828125
vt 0.390625 0.828125
vt 0.390625 0.859375
vt 0.390625 0.828125
vt 0.390625 0.859375
vt 0.390625 0.859375
vt 0.390625 0.828125
vt 0.390625 0.828125
vt 0.421875 0.859375
vt 0.421875 0.859375
vt 0.390625 0.828125
vt 0.421875 0.859375
vt 0.390625 0.828125
vt 0.390625 0.828125
vt 0.421875 0.859375
vt 0.484375 0.859375
vt 0.453125 0.859375
vt 0.453125 0.859375
vt 0.484375 0.859375
vt 0.453125 0.859375
vt 0.484375 0.859375
vt 0.484375 0.859375
vt 0.453125 0.859375
vt 0.453125 0.859375
vt 0.453125 0.828125
vt 0.453125 0.828125
vt 0.453125 0.859375
vt 0.453125 0.828125
vt 0.453125 0.859375
vt 0.453125 0.859375
vt 0.453125 0.828125
vt 0.453125 0.828125
vt 0.484375 0.859375
vt 0.484375 0.859375
vt 0.453125 0.828125
vt 0.484375 0.859375
vt 0.453125 0.828125
vt 0.453125 0.828125
vt 0.484375 0.859375
vt 0.546875 0.859375
vt 0.515625 0.859375
vt 0.515625 0.859375
vt 0.546875 0.859375
vt 0.515625 0.859375
vt 0.546875 0.859375
vt 0.546875 0.859375
vt 0.515625 0.859375
vt 0.515625 0.859375
vt 0.515625 0.828125
vt 0.515625 0.828125
vt 0.515625 0.859375
vt 0.515625 0.828125
vt 0.515625 0.859375
vt 0.515625 0.859375
vt 0.515625 0.828125
vt 0.515625 0.828125
vt 0.546875 0.828125
vt 0.546875 0.828125
vt 0.515625 0.828125
vt 0.546875 0.828125
vt 0.515625 0.828125
vt 0.515625 0.828125
vt 0.546875 0.828125
vt 0.546875 0.828125
vt 0.546875 0.859375
vt 0.546875 0.859375
vt 0.546875 0.828125
vt 0.546875 0.859375
vt 0.546875 0.828125
vt 0.546875 0.828125
vt 0.546875 0.859375
vt 0.609375 0.859375
vt 0.578125 0.859375
vt 0.578125 0.859375
vt 0.609375 0.859375
vt 0.578125 0.859375
vt 0.609375 0.859375
vt 0.609375 0.859375
vt 0.578125 0.859375
vt 0.578125 0.859375
vt 0.578125 0.828125
vt 0.578125 0.828125
vt 0.578125 0.859375
vt 0.578125 0.828125
vt 0.578125 0.859375
vt 0.578125 0.859375
vt 0.578125 0.828125
vt 0.578125 0.828125
vt 0.609375 0.859375
vt 0.609375 0.859375
vt 0.578125 0.828125
vt 0.609375 0.859375
vt 0.578125 0.828125
vt 0.578125 0.828125
vt 0.609375 0.859375
vt 0.671875 0.859375
vt 0.640625 0.859375
vt 0.640625 0.859375
vt 0.671875 0.859375
vt 0.640625 0.859375
vt 0.671875 0.859375
vt 0.671875 0.859375
vt 0.640625 0.859375
vt 0.640625 0.859375
vt 0.640625 0.828125
vt 0.640625 0.828125
vt 0.640625 0.859375
vt 0.640625 0.828125
vt 0.640625 0.859375
vt 0.640625 0.859375
vt 0.640625 0.828125
vt 0.640625 0.828125
vt 0.671875 0.859375
vt 0.671875 0.859375
vt 0.640625 0.828125
vt 0.671875 0.859375
vt 0.640625 0.828125
vt 0.640625 0.828125
vt 0.671875 0.859375
vt 0.734375 0.859375
vt 0.703125 0.859375
vt 0.703125 0.859375
vt 0.734375 0.859375
vt 0.703125 0.859375
vt 0.734375 0.859375
vt 0.734375 0.859375
vt 0.703125 0.859375
vt 0.703125 0.859375
vt 0.703125 0.828125
vt 0.703125 0.828125
vt 0.703125 0.859375
vt 0.703125 0.828125
vt 0.703125 0.859375
vt 0.703125 0.859375
vt 0.703125 0.828125
vt 0.703125 0.828125
vt 0.734375 0.828125
vt 0.734375 0.828125
vt 0.703125 0.828125
vt 0.734375 0.828125
vt 0.703125 0.828125
vt 0.703125 0.828125
vt 0.734375 0.828125
vt 0.734375 0.828125
vt 0.734375 0.859375
vt 0.734375 0.859375
vt 0.734375 0.828125
vt 0.734375 0.859375
vt 0.734375 0.828125
vt 0.734375 0.828125
vt 0.734375 0.859375
vt 0.796875 0.859375
vt 0.765625 0.859375
vt 0.765625 0.859375
vt 0.796875 0.859375
vt 0.765625 0.859375
vt 0.796875 0.859375
vt 0.796875 0.859375
vt 0.765625 0.859375
vt 0.765625 0.859375
vt 0.765625 0.828125
vt 0.765625 0.828125
vt 0.765625 0.859375
vt 0.765625 0.828125
vt 0.765625 0.859375
vt 0.765625 0.859375
vt 0.765625 0.828125
vt 0.765625 0.828125
vt 0.796875 0.859375
vt 0.796875 0.859375
vt 0.765625 0.828125
vt 0.796875 0.859375
vt 0.765625 0.828125
vt 0.765625 0.828125
vt 0.796875 0.859375
vt 0.859375 0.859375
vt 0.828125 0.859375
vt 0.828125 0.859375
vt 0.859375 0.859375
vt 0.828125 0.859375
vt 0.859375 0.859375
vt 0.859375 0.859375
vt 0.828125 0.859375
vt 0.828125 0.859375
vt 0.828125 0.828125
vt 0.828125 0.828125
vt 0.828125 0.859375
vt 0.828125 0.828125
vt 0.828125 0.859375
vt 0.828125 0.859375
vt 0.828125 0.828125
vt 0.828125 0.828125
vt 0.859375 0.859375
vt 0.859375 0.859375
vt 0.828125 0.828125
vt 0.859375 0.859375
vt 0.828125 0.828125
vt 0.828125 0.828125
vt 0.859375 0.859375
vt 0.921875 0.859375
vt 0.890625 0.859375
vt 0.890625 0.859375
vt 0.921875 0.859375
vt 0.890625 0.859375
vt 0.921875 0.859375
vt 0.921875 0.859375
vt 0.890625 0.859375
vt 0.890625 0.859375
vt 0.890625 0.828125
vt 0.890625 0.828125
vt 0.890625 0.859375
vt 0.890625 0.828125
vt 0.890625 0.859375
vt 0.890625 0.859375
vt 0.890625 0.828125
vt 0.890625 0.828125
vt 0.921875 0.828125
vt 0.921875 0.828125
vt 0.890625 0.828125
vt 0.921875 0.828125
vt 0.890625 0.828125
vt 0.890625 0.828125
vt 0.921875 0.828125
vt 0.921875 0.828125
vt 0.921875 0.859375
vt 0.921875 0.859375
vt 0.921875 0.828125
vt 0.921875 0.859375
vt 0.921875 0.828125
vt 0.921875 0.828125
vt 0.921875 0.859375
vt 0.984375 0.859375
vt 0.953125 0.859375
vt 0.953125 0.859375
vt 0.984375 0.859375
vt 0.953125 0.859375
vt 0.984375 0.859375
vt 0.984375 0.859375
vt 0.953125 0.859375
vt 0.953125 0.859375
vt 0.953125 0.828125
vt 0.953125 0.828125
vt 0.953125 0.859375
vt 0.953125 0.828125
vt 0.953125 0.859375
vt 0.953125 0.859375
vt 0.953125 0.828125
vt 0.953125 0.828125
vt 0.984375 0.859375
vt 0.984375 0.859375
vt 0.953125 0.828125
vt 0.984375 0.859375
vt 0.953125 0.828125
vt 0.953125 0.828125
vt 0.984375 0.859375
vt 0.046875 0.796875
vt 0.015625 0.796875
vt 0.015625 0.796875
vt 0.046875 0.796875
vt 0.015625 0.796875
vt 0.046875 0.796875
vt 0.046875 0.796875
vt 0.015625 0.796875
vt 0.015625 0.796875
vt 0.015625 0.765625
vt 0.015625 0.765625
vt 0.015625 0.796875
vt 0.015625 0.765625
vt 0.015625 0.796875
vt 0.015625 0.796875
vt 0.015625 0.765625
vt 0.015625 0.765625
vt 0.046875 0.796875
vt 0.046875 0.796875
vt 0.015625 0.765625
vt 0.046875 0.796875
vt 0.015625 0.765625
vt 0.015625 0.765625
vt 0.046875 0.796875
vt 0.109375 0.796875
vt 0.078125 0.796875
vt 0.078125 0.796875
vt 0.109375 0.796875
vt 0.078125 0.796875
vt 0.109375 0.796875
vt 0.109375 0.796875
vt 0.078125 0.796875
vt 0.078125 0.796875
vt 0.078125 0.765625
vt 0.078125 0.765625
vt 0.078125 0.796875
vt 0.078125 0.765625
vt 0.078125 0.796875
vt 0.078125 0.796875
vt 0.078125 0.765625
vt 0.078125 0.765625
vt 0.109375 0.765625
vt 0.109375 0.765625
vt 0.078125 0.765625
vt 0.109375 0.765625
vt 0.078125 0.765625
vt 0.078125 0.765625
vt 0.109375 0.765625
vt 0.109375 0.765625
vt 0.109375 0.796875
vt 0.109375 0.796875
vt 0.109375 0.765625
vt 0.109375 0.796875
vt 0.109375 0.765625
vt 0.109375 0.765625
vt 0.109375 0.796875
vt 0.171875 0.796875
vt 0.140625 0.796875
vt 0.140625 0.796875
vt 0.171875 0.796875
vt 0.140625 0.796875
vt 0.171875 0.796875
vt 0.171875 0.796875
vt 0.140625 0.796875
vt 0.140625 0.796875
vt 0.140625 0.765625
vt 0.140625 0.765625
vt 0.140625 0.796875
vt 0.140625 0.765625
vt 0.140625 0.796875
vt 0.140625 0.796875
vt 0.140625 0.765625
vt 0.140625 0.765625
vt 0.171875 0.796875
vt 0.171875 0.796875
vt 0.140625 0.765625
vt 0.171875 0.796875
vt 0.140625 0.765625
vt 0.140625 0.765625
vt 0.171875 0.796875
vt 0.234375 0.796875
vt 0.203125 0.796875
vt 0.203125 0.796875
vt 0.234375 0.796875
vt 0.203125 0.796875
vt 0.234375 0.796875
vt 0.234375 0.796875
vt 0.203125 0.796875
vt 0.203125 0.796875
vt 0.203125 0.765625
vt 0.203125 0.765625
vt 0.203125 0.796875
vt 0.203125 0.765625
vt 0.203125 0.796875
vt 0.203125 0.796875
vt 0.203125 0.765625
vt 0.203125 0.765625
vt 0.234375 0.796875
vt 0.234375 0.796875
vt 0.203125 0.765625
vt 0.234375 0.796875
vt 0.203125 0.765625
vt 0.203125 0.765625
vt 0.234375 0.796875
vt 0.296875 0.796875
vt 0.265625 0.796875
vt 0.265625 0.796875
vt 0.296875 0.796875
vt 0.265625 0.796875
vt 0.296875 0.796875
vt 0.296875 0.796875
vt 0.265625 0.796875
vt 0.265625 0.796875
vt 0.265625 0.765625
vt 0.265625 0.765625
vt 0.265625 0.796875
vt 0.265625 0.765625
vt 0.265625 0.796875
vt 0.265625 0.796875
vt 0.265625 0.765625
vt 0.265625 0.765625
vt 0.296875 0.765625
vt 0.296875 0.765625
vt 0.265625 0.765625
vt 0.296875 0.765625
vt 0.265625 0.765625
vt 0.265625 0.765625
vt 0.296875 0.765625
vt 0.296875 0.765625
vt 0.296875 0.796875
vt 0.296875 0.796875
vt 0.296875 0.765625
vt 0.296875 0.796875
vt 0.296875 0.765625
vt 0.296875 0.765625
vt 0.296875 0.796875
vt 0.359375 0.796875
vt 0.328125 0.796875
vt 0.328125 0.796875
vt 0.359375 0.796875
vt 0.328125 0.796875
vt 0.359375 0.796875
vt 0.359375 0.796875
vt 0.328125 0.796875
vt 0.328125 0.796875
vt 0.328125 0.765625
vt 0.328125 0.765625
vt 0.328125 0.796875
vt 0.328125 0.765625
vt 0.328125 0.796875
vt 0.328125 0.796875
vt 0.328125 0.765625
vt 0.328125 0.765625
vt 0.359375 0.796875
vt 0.359375 0.796875
vt 0.328125 0.765625
vt 0.359375 0.796875
vt 0.328125 0.765625
vt 0.328125 0.765625
vt 0.359375 0.796875
vt 0.421875 0.796875
vt 0.390625 0.796875
vt 0.390625 0.796875
vt 0.421875 0.796875
vt 0.390625 0.796875
vt 0.421875 0.796875
vt 0.421875 0.796875
vt 0.390625 0.796875
vt 0.390625 0.796875
vt 0.390625 0.765625
vt 0.390625 0.765625
vt 0.390625 0.796875
vt 0.390625 0.765625
vt 0.390625 0.796875
vt 0.390625 0.796875
vt 0.390625 0.765625
vt 0.390625 0.765625
vt 0.421875 0.796875
vt 0.421875 0.796875
vt 0.390625 0.765625
vt 0.421875 0.796875
vt 0.390625 0.765625
vt 0.390625 0.765625
vt 0.421875 0.796875
vt 0.484375 0.796875
vt 0.453125 0.796875
vt 0.453125 0.796875
vt 0.484375 0.796875
vt 0.453125 0.796875
vt 0.484375 0.796875
vt 0.484375 0.796875
vt 0.453125 0.796875
vt 0.453125 0.796875
vt 0.453125 0.765625
vt 0.453125 0.765625
vt 0.453125 0.796875
vt 0.453125 0.765625
vt 0.453125 0.796875
vt 0.453125 0.796875
vt 0.453125 0.765625
vt 0.453125 0.765625
vt 0.484375 0.765625
vt 0.484375 0.765625
vt 0.453125 0.765625
vt 0.484375 0.765625
vt 0.453125 0.765625
vt 0.453125 0.765625
vt 0.484375 0.765625
vt 0.484375 0.765625
vt 0.484375 0.796875
vt 0.484375 0.796875
vt 0.484375 0.765625
vt 0.484375 0.796875
vt 0.484375 0.765625
vt 0.484375 0.765625
vt 0.484375 0.796875
vt 0.546875 0.796875
vt 0.515625 0.796875
vt 0.515625 0.796875
vt 0.546875 0.796875
vt 0.515625 0.796875
vt 0.546875 0.796875
vt 0.546875 0.796875
vt 0.515625 0.796875
vt 0.515625 0.796875
vt 0.515625 0.765625
vt 0.515625 0.765625
vt 0.515625 0.796875
vt 0.515625 0.765625
vt 0.515625 0.796875
vt 0.515625 0.796875
vt 0.515625 0.765625
vt 0.515625 0.765625
vt 0.546875 0.796875
vt 0.546875 0.796875
vt 0.515625 0.765625
vt 0.546875 0.796875
vt 0.515625 0.765625
vt 0.515625 0.765625
vt 0.546875 0.796875
vt 0.609375 0.796875
vt 0.578125 0.796875
vt 0.578125 0.796875
vt 0.609375 0.796875
vt 0.578125 0.796875
vt 0.609375 0.796875
vt 0.609375 0.796875
vt 0.578125 0.796875
vt 0.578125 0.796875
vt 0.578125 0.765625
vt 0.578125 0.765625
vt 0.578125 0.796875
vt 0.578125 0.765625
vt 0.578125 0.796875
vt 0.578125 0.796875
vt 0.578125 0.765625
vt 0.578125 0.765625
vt 0.609375 0.796875
vt 0.609375 0.796875
vt 0.578125 0.765625
vt 0.609375 0.796875
vt 0.578125 0.765625
vt 0.578125 0.765625
vt 0.609375 0.796875
vt 0.671875 0.796875
vt 0.640625 0.796875
vt 0.640625 0.796875
vt 0.671875 0.796875
vt 0.640625 0.796875
vt 0.671875 0.796875
vt 0.671875 0.796875
vt 0.640625 0.796875
vt 0.640625 0.796875
vt 0.640625 0.765625
vt 0.640625 0.765625
vt 0.640625 0.796875
vt 0.640625 0.765625
vt 0.640625 0.796875
vt 0.640625 0.796875
vt 0.640625 0.765625
vt 0.640625 0.765625
vt 0.671875 0.765625
vt 0.671875 0.765625
vt 0.640625 0.765625
vt 0.671875 0.765625
vt 0.640625 0.765625
vt 0.640625 0.765625
vt 0.671875 0.765625
vt 0.671875 0.765625
vt 0.671875 0.796875
vt 0.671875 0.796875
vt 0.671875 0.765625
vt 0.671875 0.796875
vt 0.671875 0.765625
vt 0.671875 0.765625
vt 0.671875 0.796875
vt 0.734375 0.796875
vt 0.703125 0.796875
vt 0.703125 0.796875
vt 0.734375 0.796875
vt 0.703125 0.796875
vt 0.734375 0.796875
vt 0.734375 0.796875
vt 0.703125 0.796875
vt 0.703125 0.796875
vt 0.703125 0.765625
vt 0.703125 0.765625
vt 0.703125 0.796875
vt 0.703125 0.765625
vt 0.703125 0.796875
vt 0.703125 0.796875
vt 0.703125 0.765625
vt 0.703125 0.765625
vt 0.734375 0.796875
vt 0.734375 0.796875
vt 0.703125 0.765625
vt 0.734375 0.796875
vt 0.703125 0.765625
vt 0.703125 0.765625
vt 0.734375 0.796875
vn 0 1 0
vn -0.291295581268786 -0.8127679578571594 0.5045345687006819
vn 0 1 0
vn -0.5045345687006819 -0.8127679578571594 0.291295581268786
vn 0 1 0
vn -0.5825873726075951 -0.8127680808682016 0
vn 0 1 0
vn -0.5045345687006819 -0.8127679578571594 -0.291295581268786
vn 0 1 0
vn -0.291295581268786 -0.8127679578571594 -0.5045345687006819
vn 0 1 0
vn 0 -0.8127680808682016 -0.5825873726075951
vn 0 1 0
vn 0.291295581268786 -0.8127679578571594 -0.5045345687006819
vn 0 1 0
vn 0.5045345687006819 -0.8127679578571594 -0.291295581268786
vn 0 1 0
vn 0.5825873726075951 -0.8127680808682016 0
vn 0 1 0
vn 0.5045345687006819 -0.8127679578571594 0.291295581268786
vn 0 1 0
vn 0.291295581268786 -0.8127679578571594 0.5045345687006819
vn 0 1 0
vn 0 -0.8127680808682016 0.5825873726075951
vn -0.4336911777698797 0.4976568041269643 -0.7511655394323619
vn -0.13053048298897246 -0.9653229928879665 -0.22608253451446594
vn 0.5731320297333494 0.8039535035807196 -0.15867715832474827
vn 0.420033834302595 -0.9011992236419654 -0.1068247974403855
vn -0.3020243032016322 0.9067815711992917 0.29415727495493404
vn -0.3995596500434463 -0.8215579879877939 0.40668729809351906
vn -0.1608950168064509 0.9468119893009408 -0.2786751701943455
vn 0.4254866322868487 0.5252207849789494 0.7369560724841693
vn -0.9526129676407561 0 -0.30418503231203187
vn -0.025241707847887707 0 0.9996813773322589
vn -0.16088886445952366 -0.9468161710981847 -0.2786645141382347
vn 0.4254966267730479 -0.525188397618691 0.736973383244924
vn 0.2128821023101585 0 -0.977077893781252
vn 0.8783941884481733 0 0.4779368679025243
vn -0.4336730349355988 -0.4977200410531756 -0.7511341155238341
vn -0.13052713758783935 0.9653248022820846 -0.22607674018390178
vn -0.42399696010389326 -0.8039397319230012 0.4170221639891945
vn -0.302535118124611 0.9011953697790002 0.3103536817732615
vn 0.4057356994802349 -0.90679309295656 -0.11447632389957417
vn 0.551963300797223 0.8215708186744101 -0.14268112866000987
vn -0.7511341155238341 0.4977200410531756 -0.4336730349355988
vn -0.22607674018390433 -0.965324802282084 -0.13052713758784082
vn 0.4170221639891945 0.8039397319230012 -0.42399696010389326
vn 0.3103536817732645 -0.9011953697789982 -0.302535118124614
vn -0.11447632389957417 0.90679309295656 0.4057356994802349
vn -0.14268112866000987 -0.8215708186744101 0.551963300797223
vn -0.2786645141382347 0.9468161710981847 -0.16088886445952366
vn 0.7369733832449249 0.5251883976186892 0.4254966267730484
vn -0.977077893781252 0 0.2128821023101585
vn 0.4779368679025243 0 0.8783941884481733
vn -0.2786751701943455 -0.9468119893009408 -0.1608950168064509
vn 0.7369560724841684 -0.5252207849789512 0.42548663228684813
vn -0.30418503231203187 0 -0.9526129676407561
vn 0.9996813773322589 0 -0.025241707847887707
vn -0.7511655394323619 -0.4976568041269643 -0.4336911777698797
vn -0.22608253451446345 0.9653229928879674 -0.130530482988971
vn -0.15867715832474827 -0.8039535035807196 0.5731320297333494
vn -0.10682479744038441 0.9011992236419674 0.420033834302591
vn 0.29415727495493404 -0.9067815711992917 -0.3020243032016322
vn 0.40668729809351906 0.8215579879877939 -0.3995596500434463
vn -0.8674005932258348 0.49761050116679584 0
vn -0.2610597962415188 -0.9653226314483343 0
vn 0.14914965412009604 0.8039524374265623 -0.575686424220465
vn 0.11750096768165681 -0.9012071140218637 -0.4171561580874219
vn 0.10373428100874074 0.906784878584375 0.4086323321940152
vn 0.15241808230751613 -0.8215700499066707 0.5493554234573915
vn -0.32177667826629214 0.9468155941490989 0
vn 0.8509723659671932 0.5252104648235767 0
vn -0.7397222706996328 0 0.6729122990635401
vn 0.8531244586585295 0 0.5217074448755655
vn -0.32177667826629214 -0.9468155941490989 0
vn 0.8509723659671921 -0.5252104648235785 0
vn -0.7397222706996328 0 -0.6729122990635401
vn 0.8531244586585295 0 -0.5217074448755655
vn -0.8674005932258348 -0.49761050116679584 0
vn -0.2610597962415159 0.9653226314483353 0
vn 0.14914965412009604 -0.8039524374265623 0.575686424220465
vn 0.11750096768165574 0.9012071140218657 0.41715615808741785
vn 0.10373428100874074 -0.906784878584375 -0.4086323321940152
vn 0.15241808230751613 0.8215700499066707 -0.5493554234573915
vn -0.7511655394323619 0.4976568041269643 0.4336911777698797
vn -0.22608253451446594 -0.9653229928879665 0.13053048298897246
vn -0.15867715832474827 0.8039535035807196 -0.5731320297333494
vn -0.1068247974403855 -0.9011992236419654 -0.420033834302595
vn 0.29415727495493404 0.9067815711992917 0.3020243032016322
vn 0.40668729809351906 -0.8215579879877939 0.3995596500434463
vn -0.2786751701943455 0.9468119893009408 0.1608950168064509
vn 0.7369560724841693 0.5252207849789494 -0.4254866322868487
vn -0.30418503231203187 0 0.9526129676407561
vn 0.9996813773322589 0 0.025241707847887707
vn -0.2786645141382347 -0.9468161710981847 0.16088886445952366
vn 0.736973383244924 -0.525188397618691 -0.4254966267730479
vn -0.977077893781252 0 -0.2128821023101585
vn 0.4779368679025243 0 -0.8783941884481733
vn -0.7511341155238341 -0.4977200410531756 0.4336730349355988
vn -0.2260767401839018 0.9653248022820847 0.13052713758783938
vn 0.4170221639891945 -0.8039397319230012 0.42399696010389326
vn 0.3103536817732615 0.9011953697790002 0.302535118124611
vn -0.11447632389957417 -0.90679309295656 -0.4057356994802349
vn -0.14268112866000987 0.8215708186744101 -0.551963300797223
vn -0.43372434237328106 0.4975245404899722 0.7512340024540338
vn -0.13052503239082106 -0.9653251641287649 0.22607641057648742
vn -0.4240007651356987 0.8039369002347629 -0.417023754245802
vn -0.3025070541196705 -0.901214969841758 -0.3103241214294471
vn 0.4057356994802349 0.90679309295656 0.11447632389957417
vn 0.551963300797223 -0.8215708186744101 0.14268112866000987
vn -0.16088886445952366 0.9468161710981847 0.2786645141382347
vn 0.4254966267730484 0.5251883976186892 -0.7369733832449249
vn 0.2128821023101585 0 0.977077893781252
vn 0.8783941884481733 0 -0.4779368679025243
vn -0.1608950168064509 -0.9468119893009408 0.2786751701943455
vn 0.42548663228684813 -0.5252207849789512 -0.7369560724841684
vn -0.9526129676407561 0 0.30418503231203187
vn -0.025241707847887707 0 -0.9996813773322589
vn -0.4336835936036761 -0.4976666072893934 0.7511634233827327
vn -0.13053907652233115 0.9653175678419883 0.22610073577130496
vn 0.5731320297333494 -0.8039535035807196 0.15867715832474827
vn 0.420033834302591 0.9011992236419674 0.10682479744038441
vn -0.3019985003844142 -0.9067990965036226 -0.2941297406686014
vn -0.3995635074914567 0.8215552950263982 -0.4066889483317844
vn 0 0.49761050116679584 0.8674005932258348
vn 0 -0.9653226314483343 0.2610597962415188
vn -0.575686424220465 0.8039524374265623 -0.14914965412009604
vn -0.4171561580874219 -0.9012071140218637 -0.11750096768165683
vn 0.4086323321940152 0.906784878584375 -0.10373428100874074
vn 0.5493554234573915 -0.8215700499066707 -0.15241808230751613
vn 0 0.9468155941490989 0.32177667826629214
vn 0 0.5252104648235767 -0.8509723659671932
vn 0.6729122990635401 0 0.7397222706996328
vn 0.5217074448755655 0 -0.8531244586585295
vn 0 -0.9468155941490989 0.32177667826629214
vn 0 -0.5252104648235785 -0.8509723659671921
vn -0.6729122990635401 0 0.7397222706996328
vn -0.5217074448755655 0 -0.8531244586585295
vn 0 -0.49761050116679584 0.8674005932258348
vn 0 0.9653226314483353 0.2610597962415159
vn 0.575686424220465 -0.8039524374265623 -0.14914965412009604
vn 0.41715615808741785 0.9012071140218657 -0.11750096768165574
vn -0.4086323321940152 -0.906784878584375 -0.10373428100874074
vn -0.5493554234573915 0.8215700499066707 -0.15241808230751613
vn 0.4336835936036761 0.4976666072893934 0.7511634233827327
vn 0.13053907652233263 -0.9653175678419874 0.2261007357713075
vn -0.5731320297333494 0.8039535035807196 0.15867715832474827
vn -0.420033834302595 -0.9011992236419654 0.1068247974403855
vn 0.3019985003844142 0.9067990965036226 -0.2941297406686014
vn 0.3995635074914567 -0.8215552950263982 -0.4066889483317844
vn 0.1608950168064509 0.9468119893009408 0.2786751701943455
vn -0.4254866322868487 0.5252207849789494 -0.7369560724841693
vn 0.9526129676407561 0 0.30418503231203187
vn 0.025241707847887707 0 -0.9996813773322589
vn 0.16088886445952366 -0.9468161710981847 0.2786645141382347
vn -0.4254966267730479 -0.525188397618691 -0.736973383244924
vn -0.2128821023101585 0 0.977077893781252
vn -0.8783941884481733 0 -0.4779368679025243
vn 0.43372434237328106 -0.4975245404899722 0.7512340024540338
vn 0.13052503239081956 0.9653251641287656 0.22607641057648484
vn 0.4240007651356987 -0.8039369002347629 -0.417023754245802
vn 0.3025070541196676 0.90121496984176 -0.3103241214294441
vn -0.4057356994802349 -0.90679309295656 0.11447632389957417
vn -0.551963300797223 0.8215708186744101 0.14268112866000987
vn 0.7511341155238341 0.4977200410531756 0.4336730349355988
vn 0.22607674018390433 -0.965324802282084 0.13052713758784082
vn -0.4170221639891945 0.8039397319230012 0.42399696010389326
vn -0.3103536817732645 -0.9011953697789982 0.302535118124614
vn 0.11447632389957417 0.90679309295656 -0.4057356994802349
vn 0.14268112866000987 -0.8215708186744101 -0.551963300797223
vn 0.2786645141382347 0.9468161710981847 0.16088886445952366
vn -0.7369733832449249 0.5251883976186892 -0.4254966267730484
vn 0.977077893781252 0 -0.2128821023101585
vn -0.4779368679025243 0 -0.8783941884481733
vn 0.2786751701943455 -0.9468119893009408 0.1608950168064509
vn -0.7369560724841684 -0.5252207849789512 -0.42548663228684813
vn 0.30418503231203187 0 0.9526129676407561
vn -0.9996813773322589 0 0.025241707847887707
vn 0.7511655394323619 -0.4976568041269643 0.4336911777698797
vn 0.22608253451446345 0.9653229928879674 0.130530482988971
vn 0.15867715832474827 -0.8039535035807196 -0.5731320297333494
vn 0.10682479744038441 0.9011992236419674 -0.420033834302591
vn -0.29415727495493404 -0.9067815711992917 0.3020243032016322
vn -0.40668729809351906 0.8215579879877939 0.3995596500434463
vn 0.8674005932258348 0.49761050116679584 0
vn 0.2610597962415188 -0.9653226314483343 0
vn -0.14914965412009604 0.8039524374265623 0.575686424220465
vn -0.11750096768165681 -0.9012071140218637 0.4171561580874219
vn -0.10373428100874074 0.906784878584375 -0.4086323321940152
vn -0.15241808230751613 -0.8215700499066707 -0.5493554234573915
vn 0.32177667826629214 0.9468155941490989 0
vn -0.8509723659671932 0.5252104648235767 0
vn 0.7397222706996328 0 -0.6729122990635401
vn -0.8531244586585295 0 -0.5217074448755655
vn 0.32177667826629214 -0.9468155941490989 0
vn -0.8509723659671921 -0.5252104648235785 0
vn 0.7397222706996328 0 0.6729122990635401
vn -0.8531244586585295 0 0.5217074448755655
vn 0.8674005932258348 -0.49761050116679584 0
vn 0.2610597962415159 0.9653226314483353 0
vn -0.14914965412009604 -0.8039524374265623 -0.575686424220465
vn -0.11750096768165574 0.9012071140218657 -0.41715615808741785
vn -0.10373428100874074 -0.906784878584375 0.4086323321940152
vn -0.15241808230751613 0.8215700499066707 0.5493554234573915
vn 0.7511655394323619 0.4976568041269643 -0.4336911777698797
vn 0.22608253451446594 -0.9653229928879665 -0.13053048298897246
vn 0.15867715832474827 0.8039535035807196 0.5731320297333494
vn 0.1068247974403855 -0.9011992236419654 0.420033834302595
vn -0.29415727495493404 0.9067815711992917 -0.3020243032016322
vn -0.40668729809351906 -0.8215579879877939 -0.3995596500434463
vn 0.2786751701943455 0.9468119893009408 -0.1608950168064509
vn -0.7369560724841693 0.5252207849789494 0.4254866322868487
vn 0.30418503231203187 0 -0.9526129676407561
vn -0.9996813773322589 0 -0.025241707847887707
vn 0.2786645141382347 -0.9468161710981847 -0.16088886445952366
vn -0.736973383244924 -0.525188397618691 0.4254966267730479
vn 0.977077893781252 0 0.2128821023101585
vn -0.4779368679025243 0 0.8783941884481733
vn 0.7511341155238341 -0.4977200410531756 -0.4336730349355988
vn 0.2260767401839018 0.9653248022820847 -0.13052713758783938
vn -0.4170221639891945 -0.8039397319230012 -0.42399696010389326
vn -0.3103536817732615 0.9011953697790002 -0.302535118124611
vn 0.11447632389957417 -0.90679309295656 0.4057356994802349
vn 0.14268112866000987 0.8215708186744101 0.551963300797223
vn 0.4336730349355988 0.4977200410531756 -0.7511341155238341
vn 0.13052713758784082 -0.965324802282084 -0.22607674018390433
vn 0.42399696010389326 0.8039397319230012 0.4170221639891945
vn 0.302535118124614 -0.9011953697789982 0.3103536817732645
vn -0.4057356994802349 0.90679309295656 -0.11447632389957417
vn -0.551963300797223 -0.8215708186744101 -0.14268112866000987
vn 0.16088886445952366 0.9468161710981847 -0.2786645141382347
vn -0.4254966267730484 0.5251883976186892 0.7369733832449249
vn -0.2128821023101585 0 -0.977077893781252
vn -0.8783941884481733 0 0.4779368679025243
vn 0.1608950168064509 -0.9468119893009408 -0.2786751701943455
vn -0.42548663228684813 -0.5252207849789512 0.7369560724841684
vn 0.9526129676407561 0 -0.30418503231203187
vn 0.025241707847887707 0 0.9996813773322589
vn 0.4336911777698797 -0.4976568041269643 -0.7511655394323619
vn 0.130530482988971 0.9653229928879673 -0.22608253451446342
vn -0.5731320297333494 -0.8039535035807196 -0.15867715832474827
vn -0.420033834302591 0.9011992236419674 -0.10682479744038441
vn 0.3020243032016322 -0.9067815711992917 0.29415727495493404
vn 0.3995596500434463 0.8215579879877939 0.40668729809351906
vn 0 0.49761050116679584 -0.8674005932258348
vn 0 -0.9653226314483343 -0.2610597962415188
vn 0.575686424220465 0.8039524374265623 0.14914965412009604
vn 0.4171561580874219 -0.9012071140218637 0.11750096768165683
vn -0.4086323321940152 0.906784878584375 0.10373428100874074
vn -0.5493554234573915 -0.8215700499066707 0.15241808230751613
vn 0 0.9468155941490989 -0.32177667826629214
vn 0 0.5252104648235767 0.8509723659671932
vn -0.6729122990635401 0 -0.7397222706996328
vn -0.5217074448755655 0 0.8531244586585295
vn 0 -0.9468155941490989 -0.32177667826629214
vn 0 -0.5252104648235785 0.8509723659671921
vn 0.6729122990635401 0 -0.7397222706996328
vn 0.5217074448755655 0 0.8531244586585295
vn 0 -0.49761050116679584 -0.8674005932258348
vn 0 0.9653226314483353 -0.2610597962415159
vn -0.575686424220465 -0.8039524374265623 0.14914965412009604
vn -0.41715615808741785 0.9012071140218657 0.11750096768165574
vn 0.4086323321940152 -0.906784878584375 0.10373428100874074
vn 0.5493554234573915 0.8215700499066707 0.15241808230751613
usemtl none
f 1/1/1 2/2/1 3/3/1
f 2/4/2 1/5/2 4/6/2
f 5/7/3 1/8/3 3/9/3
f 1/10/4 5/11/4 4/12/4
f 6/13/5 5/14/5 3/15/5
f 5/16/6 6/17/6 4/18/6
f 7/19/7 6/20/7 3/21/7
f 6/22/8 7/23/8 4/24/8
f 8/25/9 7/26/9 3/27/9
f 7/28/10 8/29/10 4/30/10
f 9/31/11 8/32/11 3/33/11
f 8/34/12 9/35/12 4/36/12
f 10/37/13 9/38/13 3/39/13
f 9/40/14 10/41/14 4/42/14
f 11/43/15 10/44/15 3/45/15
f 10/46/16 11/47/16 4/48/16
f 12/49/17 11/50/17 3/51/17
f 11/52/18 12/53/18 4/54/18
f 13/55/19 12/56/19 3/57/19
f 12/58/20 13/59/20 4/60/20
f 14/61/21 13/62/21 3/63/21
f 13/64/22 14/65/22 4/66/22
f 2/67/23 14/68/23 3/69/23
f 14/70/24 2/71/24 4/72/24
f 15/73/25 16/74/25 17/75/25 18/76/25
f 16/77/26 15/78/26 19/79/26 20/80/26
f 16/81/27 21/82/27 22/83/27 17/84/27
f 21/85/28 16/86/28 20/87/28 23/88/28
f 21/89/29 15/90/29 18/91/29 22/92/29
f 15/93/30 21/94/30 23/95/30 19/96/30
f 24/97/31 25/98/31 18/99/31 17/100/31
f 25/101/32 24/102/32 20/103/32 19/104/32
f 25/105/33 26/106/33 27/107/33 18/108/33
f 26/109/34 25/110/34 19/111/34 28/112/34
f 26/113/35 29/114/35 30/115/35 27/116/35
f 29/117/36 26/118/36 28/119/36 31/120/36
f 29/121/37 24/122/37 17/123/37 30/124/37
f 24/125/38 29/126/38 31/127/38 20/128/38
f 32/129/39 33/130/39 27/131/39 30/132/39
f 33/133/40 32/134/40 31/135/40 28/136/40
f 33/137/41 34/138/41 35/139/41 27/140/41
f 34/141/42 33/142/42 28/143/42 36/144/42
f 34/145/43 32/146/43 30/147/43 35/148/43
f 32/149/44 34/150/44 36/151/44 31/152/44
f 37/153/45 38/154/45 18/155/45 39/156/45
f 38/157/46 37/158/46 40/159/46 19/160/46
f 38/161/47 41/162/47 22/163/47 18/164/47
f 41/165/48 38/166/48 19/167/48 23/168/48
f 41/169/49 37/170/49 39/171/49 22/172/49
f 37/173/50 41/174/50 23/175/50 40/176/50
f 42/177/51 43/178/51 39/179/51 18/180/51
f 43/181/52 42/182/52 19/183/52 40/184/52
f 43/185/53 44/186/53 45/187/53 39/188/53
f 44/189/54 43/190/54 40/191/54 46/192/54
f 44/193/55 47/194/55 27/195/55 45/196/55
f 47/197/56 44/198/56 46/199/56 28/200/56
f 47/201/57 42/202/57 18/203/57 27/204/57
f 42/205/58 47/206/58 28/207/58 19/208/58
f 48/209/59 49/210/59 45/211/59 27/212/59
f 49/213/60 48/214/60 28/215/60 46/216/60
f 49/217/61 50/218/61 35/219/61 45/220/61
f 50/221/62 49/222/62 46/223/62 36/224/62
f 50/225/63 48/226/63 27/227/63 35/228/63
f 48/229/64 50/230/64 36/231/64 28/232/64
f 51/233/65 52/234/65 39/235/65 53/236/65
f 52/237/66 51/238/66 54/239/66 40/240/66
f 52/241/67 55/242/67 22/243/67 39/244/67
f 55/245/68 52/246/68 40/247/68 23/248/68
f 55/249/69 51/250/69 53/251/69 22/252/69
f 51/253/70 55/254/70 23/255/70 54/256/70
f 56/257/71 57/258/71 53/259/71 39/260/71
f 57/261/72 56/262/72 40/263/72 54/264/72
f 57/265/73 58/266/73 59/267/73 53/268/73
f 58/269/74 57/270/74 54/271/74 60/272/74
f 58/273/75 61/274/75 45/275/75 59/276/75
f 61/277/76 58/278/76 60/279/76 46/280/76
f 61/281/77 56/282/77 39/283/77 45/284/77
f 56/285/78 61/286/78 46/287/78 40/288/78
f 62/289/79 63/290/79 59/291/79 45/292/79
f 63/293/80 62/294/80 46/295/80 60/296/80
f 63/297/81 64/298/81 35/299/81 59/300/81
f 64/301/82 63/302/82 60/303/82 36/304/82
f 64/305/83 62/306/83 45/307/83 35/308/83
f 62/309/84 64/310/84 36/311/84 46/312/84
f 65/313/85 66/314/85 53/315/85 67/316/85
f 66/317/86 65/318/86 68/319/86 54/320/86
f 66/321/87 69/322/87 22/323/87 53/324/87
f 69/325/88 66/326/88 54/327/88 23/328/88
f 69/329/89 65/330/89 67/331/89 22/332/89
f 65/333/90 69/334/90 23/335/90 68/336/90
f 70/337/91 71/338/91 67/339/91 53/340/91
f 71/341/92 70/342/92 54/343/92 68/344/92
f 71/345/93 72/346/93 73/347/93 67/348/93
f 72/349/94 71/350/94 68/351/94 74/352/94
f 72/353/95 75/354/95 59/355/95 73/356/95
f 75/357/96 72/358/96 74/359/96 60/360/96
f 75/361/97 70/362/97 53/363/97 59/364/97
f 70/365/98 75/366/98 60/367/98 54/368/98
f 76/369/99 77/370/99 73/371/99 59/372/99
f 77/373/100 76/374/100 60/375/100 74/376/100
f 77/377/101 78/378/101 35/379/101 73/380/101
f 78/381/102 77/382/102 74/383/102 36/384/102
f 78/385/103 76/386/103 59/387/103 35/388/103
f 76/389/104 78/390/104 36/391/104 60/392/104
f 79/393/105 80/394/105 67/395/105 81/396/105
f 80/397/106 79/398/106 82/399/106 68/400/106
f 80/401/107 83/402/107 22/403/107 67/404/107
f 83/405/108 80/406/108 68/407/108 23/408/108
f 83/409/109 79/410/109 81/411/109 22/412/109
f 79/413/110 83/414/110 23/415/110 82/416/110
f 84/417/111 85/418/111 81/419/111 67/420/111
f 85/421/112 84/422/112 68/423/112 82/424/112
f 85/425/113 86/426/113 87/427/113 81/428/113
f 86/429/114 85/430/114 82/431/114 88/432/114
f 86/433/115 89/434/115 73/435/115 87/436/115
f 89/437/116 86/438/116 88/439/116 74/440/116
f 89/441/117 84/442/117 67/443/117 73/444/117
f 84/445/118 89/446/118 74/447/118 68/448/118
f 90/449/119 91/450/119 87/451/119 73/452/119
f 91/453/120 90/454/120 74/455/120 88/456/120
f 91/457/121 92/458/121 35/459/121 87/460/121
f 92/461/122 91/462/122 88/463/122 36/464/122
f 92/465/123 90/466/123 73/467/123 35/468/123
f 90/469/124 92/470/124 36/471/124 74/472/124
f 93/473/125 94/474/125 81/475/125 95/476/125
f 94/477/126 93/478/126 96/479/126 82/480/126
f 94/481/127 97/482/127 22/483/127 81/484/127
f 97/485/128 94/486/128 82/487/128 23/488/128
f 97/489/129 93/490/129 95/491/129 22/492/129
f 93/493/130 97/494/130 23/495/130 96/496/130
f 98/497/131 99/498/131 95/499/131 81/500/131
f 99/501/132 98/502/132 82/503/132 96/504/132
f 99/505/133 100/506/133 101/507/133 95/508/133
f 100/509/134 99/510/134 96/511/134 102/512/134
f 100/513/135 103/514/135 87/515/135 101/516/135
f 103/517/136 100/518/136 102/519/136 88/520/136
f 103/521/137 98/522/137 81/523/137 87/524/137
f 98/525/138 103/526/138 88/527/138 82/528/138
f 104/529/139 105/530/139 101/531/139 87/532/139
f 105/533/140 104/534/140 88/535/140 102/536/140
f 105/537/141 106/538/141 35/539/141 101/540/141
f 106/541/142 105/542/142 102/543/142 36/544/142
f 106/545/143 104/546/143 87/547/143 35/548/143
f 104/549/144 106/550/144 36/551/144 88/552/144
f 107/553/145 108/554/145 95/555/145 109/556/145
f 108/557/146 107/558/146 110/559/146 96/560/146
f 108/561/147 111/562/147 22/563/147 95/564/147
f 111/565/148 108/566/148 96/567/148 23/568/148
f 111/569/149 107/570/149 109/571/149 22/572/149
f 107/573/150 111/574/150 23/575/150 110/576/150
f 112/577/151 113/578/151 109/579/151 95/580/151
f 113/581/152 112/582/152 96/583/152 110/584/152
f 113/585/153 114/586/153 115/587/153 109/588/153
f 114/589/154 113/590/154 110/591/154 116/592/154
f 114/593/155 117/594/155 101/595/155 115/596/155
f 117/597/156 114/598/156 116/599/156 102/600/156
f 117/601/157 112/602/157 95/603/157 101/604/157
f 112/605/158 117/606/158 102/607/158 96/608/158
f 118/609/159 119/610/159 115/611/159 101/612/159
f 119/613/160 118/614/160 102/615/160 116/616/160
f 119/617/161 120/618/161 35/619/161 115/620/161
f 120/621/162 119/622/162 116/623/162 36/624/162
f 120/625/163 118/626/163 101/627/163 35/628/163
f 118/629/164 120/630/164 36/631/164 102/632/164
f 121/633/165 122/634/165 109/635/165 123/636/165
f 122/637/166 121/638/166 124/639/166 110/640/166
f 122/641/167 125/642/167 22/643/167 109/644/167
f 125/645/168 122/646/168 110/647/168 23/648/168
f 125/649/169 121/650/169 123/651/169 22/652/169
f 121/653/170 125/654/170 23/655/170 124/656/170
f 126/657/171 127/658/171 123/659/171 109/660/171
f 127/661/172 126/662/172 110/663/172 124/664/172
f 127/665/173 128/666/173 129/667/173 123/668/173
f 128/669/174 127/670/174 124/671/174 130/672/174
f 128/673/175 131/674/175 115/675/175 129/676/175
f 131/677/176 128/678/176 130/679/176 116/680/176
f 131/681/177 126/682/177 109/683/177 115/684/177
f 126/685/178 131/686/178 116/687/178 110/688/178
f 132/689/179 133/690/179 129/691/179 115/692/179
f 133/693/180 132/694/180 116/695/180 130/696/180
f 133/697/181 134/698/181 35/699/181 129/700/181
f 134/701/182 133/702/182 130/703/182 36/704/182
f 134/705/183 132/706/183 115/707/183 35/708/183
f 132/709/184 134/710/184 36/711/184 116/712/184
f 135/713/185 136/714/185 123/715/185 137/716/185
f 136/717/186 135/718/186 138/719/186 124/720/186
f 136/721/187 139/722/187 22/723/187 123/724/187
f 139/725/188 136/726/188 124/727/188 23/728/188
f 139/729/189 135/730/189 137/731/189 22/732/189
f 135/733/190 139/734/190 23/735/190 138/736/190
f 140/737/191 141/738/191 137/739/191 123/740/191
f 141/741/192 140/742/192 124/743/192 138/744/192
f 141/745/193 142/746/193 143/747/193 137/748/193
f 142/749/194 141/750/194 138/751/194 144/752/194
f 142/753/195 145/754/195 129/755/195 143/756/195
f 145/757/196 142/758/196 144/759/196 130/760/196
f 145/761/197 140/762/197 123/763/197 129/764/197
f 140/765/198 145/766/198 130/767/198 124/768/198
f 146/769/199 147/770/199 143/771/199 129/772/199
f 147/773/200 146/774/200 130/775/200 144/776/200
f 147/777/201 148/778/201 35/779/201 143/780/201
f 148/781/202 147/782/202 144/783/202 36/784/202
f 148/785/203 146/786/203 129/787/203 35/788/203
f 146/789/204 148/790/204 36/791/204 130/792/204
f 149/793/205 150/794/205 137/795/205 151/796/205
f 150/797/206 149/798/206 152/799/206 138/800/206
f 150/801/207 153/802/207 22/803/207 137/804/207
f 153/805/208 150/806/208 138/807/208 23/808/208
f 153/809/209 149/810/209 151/811/209 22/812/209
f 149/813/210 153/814/210 23/815/210 152/816/210
f 154/817/211 155/818/211 151/819/211 137/820/211
f 155/821/212 154/822/212 138/823/212 152/824/212
f 155/825/213 156/826/213 157/827/213 151/828/213
f 156/829/214 155/830/214 152/831/214 158/832/214
f 156/833/215 159/834/215 143/835/215 157/836/215
f 159/837/216 156/838/216 158/839/216 144/840/216
f 159/841/217 154/842/217 137/843/217 143/844/217
f 154/845/218 159/846/218 144/847/218 138/848/218
f 160/849/219 161/850/219 157/851/219 143/852/219
f 161/853/220 160/854/220 144/855/220 158/856/220
f 161/857/221 162/858/221 35/859/221 157/860/221
f 162/861/222 161/862/222 158/863/222 36/864/222
f 162/865/223 160/866/223 143/867/223 35/868/223
f 160/869/224 162/870/224 36/871/224 144/872/224
f 163/873/225 164/874/225 151/875/225 165/876/225
f 164/877/226 163/878/226 166/879/226 152/880/226
f 164/881/227 167/882/227 22/883/227 151/884/227
f 167/885/228 164/886/228 152/887/228 23/888/228
f 167/889/229 163/890/229 165/891/229 22/892/229
f 163/893/230 167/894/230 23/895/230 166/896/230
f 168/897/231 169/898/231 165/899/231 151/900/231
f 169/901/232 168/902/232 152/903/232 166/904/232
f 169/905/233 170/906/233 171/907/233 165/908/233
f 170/909/234 169/910/234 166/911/234 172/912/234
f 170/913/235 173/914/235 157/915/235 171/916/235
f 173/917/236 170/918/236 172/919/236 158/920/236
f 173/921/237 168/922/237 151/923/237 157/924/237
f 168/925/238 173/926/238 158/927/238 152/928/238
f 174/929/239 175/930/239 171/931/239 157/932/239
f 175/933/240 174/934/240 158/935/240 172/936/240
f 175/937/241 176/938/241 35/939/241 171/940/241
f 176/941/242 175/942/242 172/943/242 36/944/242
f 176/945/243 174/946/243 157/947/243 35/948/243
f 174/949/244 176/950/244 36/951/244 158/952/244
f 177/953/245 178/954/245 165/955/245 17/956/245
f 178/957/246 177/958/246 20/959/246 166/960/246
f 178/961/247 179/962/247 22/963/247 165/964/247
f 179/965/248 178/966/248 166/967/248 23/968/248
f 179/969/249 177/970/249 17/971/249 22/972/249
f 177/973/250 179/974/250 23/975/250 20/976/250
f 180/977/251 181/978/251 17/979/251 165/980/251
f 181/981/252 180/982/252 166/983/252 20/984/252
f 181/985/253 182/986/253 30/987/253 17/988/253
f 182/989/254 181/990/254 20/991/254 31/992/254
f 182/993/255 183/994/255 171/995/255 30/996/255
f 183/997/256 182/998/256 31/999/256 172/1000/256
f 183/1001/257 180/1002/257 165/1003/257 171/1004/257
f 180/1005/258 183/1006/258 172/1007/258 166/1008/258
f 184/1009/259 185/1010/259 30/1011/259 171/1012/259
f 185/1013/260 184/1014/260 172/1015/260 31/1016/260
f 185/1017/261 186/1018/261 35/1019/261 30/1020/261
f 186/1021/262 185/1022/262 31/1023/262 36/1024/262
f 186/1025/263 184/1026/263 171/1027/263 35/1028/263
f 184/1029/264 186/1030/264 36/1031/264 172/1032/264